<?xml version="1.0" encoding="UTF-8"?>
<svg id="Camada_1" xmlns="http://www.w3.org/2000/svg" version="1.1" viewBox="0 0 820.5 878.6">
  <!-- Generator: Adobe Illustrator 30.4.0, SVG Export Plug-In . SVG Version: 2.1.4 Build 226)  -->
  <defs>
    <style>
      .st0 {
        fill: #238652;
      }

      .st1 {
        fill: #d5d6d8;
      }
    </style>
  </defs>
  <g>
    <path class="st1" d="M682.7,12.2c-3.5,1.3-.9-1.3-.9-1.1-18.4,58.6-14.5,108.5-9.8,168,.6,26.7-8.4,51.7-24,73.4l-53.4,66.9c-7.2,12.1-5.3,26.5,5.5,35.8l38.4,21c13.4,13.3,10.1,29.6-9.8,48.9-5.4,15.5,3.7,27.1,27.2,34.8,2.7,5.5-.4,9.7-9.1,12.7-14.8,17.3-6.5,33.1,24.8,47.5,4.8,3.9,6.8,9.3,6.3,15.4-13.6,39.5,2.2,70.5,37.2,91.2,3.1-2.2,8.7.8,6.9,4.7-13.4,4-25.5.6-39.4.6h-390.3c-8-.1-14.1,3.1-20.8-.6l-5.2-.6c-28.6-124.6-57.3-249.1-86-373.7l4.2-4.1L682.4,0c3.6-.3,4.6,11.2.3,12.2Z"/>
    <g>
      <path class="st0" d="M172.7,249.6l-52.9-5.4c-3.8-.4-9.8,2.4-8.7,7l95.3,409.1,59-23.1c2.5-1,4.4-3.2,6.2-5.7l-87-378.4c-3.2-1.5-7.1-2.9-11.8-3.4Z"/>
      <path class="st0" d="M192.3,657c-.8-1.2-1.7-2.2-2.6-3.2-1.5-1.6-2.8-2.9-3.2-5l-88.7-381.4c-1.4-6.1,1.4-8.9,6.1-13.7.5-.5.9-.9,1.4-1.4l5.6-5.8-8,1.1c-5.7.8-10,3.1-12.5,6.8-3,4.3-3.6,10.5-1.7,18.4l87.8,376.7c1.7,7.5,6.3,11.8,12.3,11.8s1,0,1.6,0l4.5-.5-2.5-3.8Z"/>
      <path class="st0" d="M717.7,623.9c-19-7.9-33.9-25.9-39.7-47.3-6.4-24,17.6-47.3-7.4-62.6-15.5-9.5-31.8-18.3-26.1-31.7,2-4.8,6.9-7.2,13.3-7.7l25.6-1.7c2.7-.2,5.9-2.6,6.2-4.5,1.3-9-23.6-8.5-45.2-20.3-34-18.5,14.8-32.3,8.7-61.5-1.3-6.4-6.4-13.4-14.4-17.5l-31-15.9c-13.1-6.7-14.6-20.9-6.7-32.9,22.9-35,63.5-64.3,73.4-113.1,4.6-22.9,1.6-45.4.2-68.7-5.3-43-3.6-84.8,8.1-126.4,1.2-3.3-2.2-3.9-2.2-1.4-14.8,37.4-20,75.3-16.6,115.1,5.6,66,9.2,89.7-34.7,143l-35.9,43.7c-6.9,8.4-9.7,18.7-6.9,30.2,1.7,6.8,7.7,15.7,16.4,20.2l31,16.1c8.8,4.6,12.3,14.3,6.1,22.6l-13.8,18.4c-7.6,10.1-5.8,22.2,3.7,30.5,7.4,6.6,15.5,9.2,25,13.2-12.7,3.7-18,9-20.2,18.7-3.9,17.2,12.8,28.5,31.2,38.9,18,10.1-1.7,30.3,3.7,54.2,5.5,24.1,24.1,42.4,45.6,51,.5.2.9.4,1.3.6,2.4,1.1,4.4,2.7,5.6,4.2,2.4-.7,7.4,2,10.9-1.3l-15.1-6.2Z"/>
    </g>
  </g>
  <g>
    <path class="st0" d="M0,866v-100.8h68.1v17.3H22.2v24.6h42.8v17.3H22.2v41.6H0Z"/>
    <path class="st0" d="M62.4,866l46.3-100.8h17.9l46.3,100.8h-22.3l-9.4-21.9h-47.1l-9.3,21.9h-22.5ZM117.4,788.7l-15.9,38h32.3l-16.2-38h-.3Z"/>
    <path class="st0" d="M228.1,867.5c-10.9,0-20.2-2.1-27.9-6.4-7.7-4.3-13.7-10.3-17.8-18.1-4.1-7.8-6.2-16.9-6.2-27.5s2.1-19.6,6.2-27.4c4.1-7.8,10.1-13.8,17.8-18.1,7.7-4.3,17-6.4,27.9-6.4s13.1,1,19.2,3.1c6.1,2.1,11.1,5,15,8.6l-6.9,17.6c-4.3-3.3-8.6-5.8-12.9-7.4-4.3-1.6-8.9-2.4-13.7-2.4-9.6,0-16.9,2.8-21.8,8.4-4.9,5.6-7.4,13.6-7.4,24s2.5,18.4,7.4,24c4.9,5.6,12.2,8.4,21.8,8.4s9.3-.8,13.7-2.4c4.3-1.6,8.7-4,12.9-7.4l6.9,17.6c-3.9,3.5-8.9,6.4-15,8.5-6.1,2.1-12.5,3.2-19.2,3.2Z"/>
    <path class="st0" d="M276.9,866v-100.8h69.1v17.3h-47.9v23.6h44.8v17.4h-44.8v25.2h47.9v17.3h-69.1Z"/>
    <path class="st1" d="M357.6,878.6v-12.6h65.8v12.6h-65.8Z"/>
    <path class="st0" d="M473.9,867.5c-7.9,0-15.4-1-22.4-3-7-2-12.8-4.7-17.5-8.2l6.4-17.4c4.5,3.1,9.6,5.6,15.4,7.4,5.8,1.8,11.8,2.7,18.1,2.7s11.8-1.1,14.8-3.2c3-2.1,4.5-4.8,4.5-8.1s-1-5-3.1-6.6c-2.1-1.6-5.8-3-11-4.1l-16.2-3.4c-18-3.8-27-13.2-27-28s1.7-12,5.1-16.8c3.4-4.8,8.2-8.6,14.4-11.2,6.2-2.7,13.3-4,21.4-4s13.5,1,19.6,3c6.1,2,11.2,4.8,15.2,8.4l-6.4,16.3c-7.8-6.2-17.3-9.3-28.5-9.3s-10.7,1.2-13.9,3.5c-3.3,2.3-4.9,5.4-4.9,9.1s1,5,3,6.7c2,1.7,5.5,3.1,10.4,4.1l16.2,3.4c18.5,4,27.8,13.1,27.8,27.2s-1.7,11.8-5.1,16.5c-3.4,4.7-8.2,8.4-14.3,11-6.2,2.6-13.4,3.9-21.8,3.9Z"/>
    <path class="st0" d="M578.4,867.5c-10.9,0-20.2-2.1-27.9-6.4-7.7-4.3-13.7-10.3-17.8-18.1-4.1-7.8-6.2-16.9-6.2-27.5s2.1-19.6,6.2-27.4c4.1-7.8,10.1-13.8,17.8-18.1s17-6.4,27.9-6.4,13.1,1,19.2,3.1c6.1,2.1,11.1,5,15,8.6l-6.9,17.6c-4.3-3.3-8.6-5.8-12.9-7.4-4.3-1.6-8.9-2.4-13.7-2.4-9.6,0-16.9,2.8-21.8,8.4-4.9,5.6-7.4,13.6-7.4,24s2.5,18.4,7.4,24c4.9,5.6,12.2,8.4,21.8,8.4s9.3-.8,13.7-2.4c4.3-1.6,8.7-4,12.9-7.4l6.9,17.6c-3.9,3.5-8.9,6.4-15,8.5-6.1,2.1-12.5,3.2-19.2,3.2Z"/>
    <path class="st0" d="M613.8,866l46.3-100.8h17.9l46.3,100.8h-22.3l-9.4-21.9h-47.1l-9.3,21.9h-22.5ZM668.8,788.7l-15.9,38h32.3l-16.2-38h-.3Z"/>
    <path class="st0" d="M733.1,866v-100.8h16.5l50.3,64.2v-64.2h20.6v100.8h-16.3l-50.5-64.4v64.4h-20.6Z"/>
  </g>
</svg>